# xmcd CD database file
#
# Track frame offsets:
#	182
#	21320
#	56370
#	68340
#	92232
#	109122
#	129100
#	146795
#	175625
#	196647
#	233030
#	248730
#	272640
#	287425
#	301527
#
# Disc length: 4308 seconds
#
# Revision: 1
# Processed by: cddbd v1.4PL0 Copyright (c) Steve Scherf et al.
# Submitted via: CDex 1.51
#
DISCID=b910d20f
DTITLE=Sid Kucera Band - Jazz Bag
DYEAR=1994
DGENRE=Jazz
TTITLE0=So Do I
TTITLE1=Do You Know What It Means
TTITLE2=Dardanella
TTITLE3=Keepin' Out Of Mischief Now
TTITLE4=Jumpin' With Symphony Sid
TTITLE5=I Can't Give You Anything But Love
TTITLE6=The Lady Is A Tramp
TTITLE7=St. Louis Blues
TTITLE8=It's Only A Paper Moon
TTITLE9=Sack O' Woe
TTITLE10=Du Und Ich /InZurych/
TTITLE11=Broadway
TTITLE12=New York, New York
TTITLE13=Down By The Riverside
TTITLE14=What A Wonderful World
EXTD=YEAR: 1994
EXTT0=
EXTT1=
EXTT2=
EXTT3=
EXTT4=
EXTT5=
EXTT6=
EXTT7=
EXTT8=
EXTT9=
EXTT10=
EXTT11=
EXTT12=
EXTT13=
EXTT14=
PLAYORDER=
